<svg width="400" height="221" viewBox="0 0 400 221" fill="none" xmlns="http://www.w3.org/2000/svg">
<path d="M165.629 32.1633V66.8311C163.096 62.9305 159.622 59.7305 155.527 57.5261C150.551 54.7711 145.165 52.8322 139.575 51.7835V17.1157C145.165 18.1644 150.551 20.1033 155.527 22.8583C159.622 25.0627 163.096 28.2627 165.629 32.1633Z" fill="#0A6190" stroke="#0A6190" stroke-linejoin="round"/>
<path opacity="0.5" d="M292.682 71.0351C318.338 70.8529 343.57 77.5731 365.737 90.4918C387.219 102.907 399.591 117.138 399.99 132.224C400.39 147.35 388.741 162.437 364.483 176.511L289.744 219.976C289.295 220.237 288.742 220.238 288.292 219.979L260.435 203.914C259.988 203.656 259.711 203.179 259.711 202.662C259.71 202.145 259.984 201.667 260.431 201.408L335.174 157.941C350.67 148.96 357.535 139.975 357.795 131.789C358.053 123.647 351.786 115.409 338.708 107.867C312.802 92.9279 280.087 92.22 249.354 110.086L215.175 130.024C214.509 130.413 213.654 130.21 213.232 129.564C210.636 125.582 207.076 122.32 202.883 120.081L202.863 120.071C197.668 117.194 192.044 115.169 186.208 114.074C185.613 113.963 185.15 113.493 185.047 112.897C184.945 112.301 185.223 111.704 185.746 111.399L219.917 91.5234C241.897 78.2938 267.029 71.2173 292.682 71.0351Z" fill="#51A6B1"/>
<path d="M214.389 70.7106V107.853C211.675 103.674 207.953 100.246 203.566 97.884C198.235 94.9323 192.464 92.8551 186.475 91.7315V54.5889C192.464 55.7124 198.235 57.7897 203.566 60.7413C207.953 63.1032 211.675 66.5316 214.389 70.7106Z" fill="#0A6190" stroke="#0A6190" stroke-linejoin="round"/>
<path fill-rule="evenodd" clip-rule="evenodd" d="M359.256 110.472V73.2726C359.256 64.3857 352.363 56.0115 339.488 48.5488C313.113 33.3385 279.844 32.6549 248.683 50.7705V50.9378L248.625 50.8276L214.388 70.7092L214.274 107.852L248.825 87.8311L248.825 87.8301C279.889 69.7997 313.153 70.5044 339.431 85.6914C352.363 93.382 359.256 101.642 359.256 110.472Z" fill="#0A6190"/>
<path d="M358.756 110.472C358.756 110.748 358.98 110.972 359.256 110.972C359.532 110.972 359.756 110.748 359.756 110.472H358.756ZM339.488 48.5488L339.739 48.1162L339.738 48.1156L339.488 48.5488ZM248.683 50.7705L248.431 50.3382C248.277 50.4277 248.183 50.5924 248.183 50.7705H248.683ZM248.683 50.9378L248.24 51.1696C248.346 51.3736 248.579 51.4783 248.802 51.4233C249.026 51.3683 249.183 51.1679 249.183 50.9378H248.683ZM248.625 50.8276L249.068 50.5957C249.005 50.4749 248.895 50.3851 248.764 50.3472C248.633 50.3094 248.492 50.3267 248.374 50.3952L248.625 50.8276ZM214.388 70.7092L214.137 70.2768C213.983 70.366 213.888 70.53 213.888 70.7076L214.388 70.7092ZM214.274 107.852L213.774 107.85C213.773 108.029 213.868 108.195 214.023 108.285C214.178 108.374 214.369 108.374 214.524 108.284L214.274 107.852ZM248.825 87.8311L249.075 88.2637C249.137 88.2281 249.19 88.1797 249.231 88.1219L248.825 87.8311ZM248.825 87.8301L248.574 87.3977C248.513 87.4333 248.46 87.4816 248.419 87.5393L248.825 87.8301ZM339.431 85.6914L339.687 85.2616L339.682 85.2585L339.431 85.6914ZM358.756 73.2726V110.472H359.756V73.2726H358.756ZM339.238 48.9813C352.075 56.4224 358.756 64.667 358.756 73.2726H359.756C359.756 64.1044 352.651 55.6005 339.739 48.1162L339.238 48.9813ZM248.934 51.2027C279.947 33.173 313.025 33.8652 339.239 48.9819L339.738 48.1156C313.2 32.8118 279.74 32.1368 248.431 50.3382L248.934 51.2027ZM249.183 50.9378V50.7705H248.183V50.9378H249.183ZM248.182 51.0595L248.24 51.1696L249.126 50.7059L249.068 50.5957L248.182 51.0595ZM214.639 71.1415L248.876 51.26L248.374 50.3952L214.137 70.2768L214.639 71.1415ZM214.774 107.853L214.888 70.7107L213.888 70.7076L213.774 107.85L214.774 107.853ZM248.574 87.3985L214.023 107.419L214.524 108.284L249.075 88.2637L248.574 87.3985ZM248.419 87.5393L248.418 87.5403L249.231 88.1219L249.232 88.1209L248.419 87.5393ZM339.682 85.2585C313.241 69.9778 279.785 69.2815 248.574 87.3977L249.076 88.2626C279.992 70.3179 313.065 71.031 339.181 86.1243L339.682 85.2585ZM359.756 110.472C359.756 101.359 352.648 92.9697 339.687 85.2617L339.176 86.1212C352.078 93.7943 358.756 101.925 358.756 110.472H359.756Z" fill="#0A6190"/>
<path d="M365.011 33.6806C407.793 58.4044 412.066 89.1667 363.758 117.195L289.016 160.661L261.159 144.596L335.901 101.13C367.062 83.0712 365.808 63.7593 339.432 48.5491C313.057 33.3388 279.788 32.6552 248.627 50.7708L214.446 70.7093C211.717 66.5232 207.974 63.0941 203.566 60.7401C198.235 57.7884 192.464 55.7112 186.475 54.5876L220.656 34.706C242.415 21.6068 267.296 14.6 292.693 14.4196C318.09 14.2392 343.068 20.8918 365.011 33.6806Z" fill="#5CC3C9" stroke="#0A6190" stroke-linejoin="round"/>
<path fill-rule="evenodd" clip-rule="evenodd" d="M398.507 74.9817V112.124C398.507 126.138 387.398 140.608 363.7 154.394V154.077L363.644 154.395L288.903 197.804L288.903 197.803L261.046 181.739L261.16 144.596L289.017 160.661V160.661L363.7 117.253V117.194C387.455 103.408 398.507 88.9956 398.507 74.9817Z" fill="#0A6190"/>
<path d="M399.007 74.9817C399.007 74.7055 398.783 74.4817 398.507 74.4817C398.231 74.4817 398.007 74.7055 398.007 74.9817H399.007ZM363.7 154.394H363.2C363.2 154.573 363.296 154.738 363.451 154.827C363.606 154.917 363.797 154.916 363.951 154.826L363.7 154.394ZM363.7 154.077H364.2C364.2 153.817 364.002 153.601 363.744 153.579C363.486 153.556 363.253 153.734 363.208 153.989L363.7 154.077ZM363.644 154.395L363.895 154.827C364.022 154.753 364.11 154.627 364.136 154.482L363.644 154.395ZM288.903 197.804L288.403 197.803C288.402 197.982 288.498 198.148 288.653 198.237C288.808 198.327 288.999 198.326 289.154 198.236L288.903 197.804ZM288.903 197.803L289.403 197.804C289.403 197.625 289.308 197.46 289.152 197.37L288.903 197.803ZM261.046 181.739L260.546 181.737C260.546 181.916 260.641 182.082 260.796 182.172L261.046 181.739ZM261.16 144.596L261.41 144.163C261.255 144.074 261.065 144.074 260.911 144.163C260.756 144.252 260.661 144.416 260.66 144.595L261.16 144.596ZM289.017 160.661H289.517C289.517 160.482 289.422 160.317 289.267 160.228L289.017 160.661ZM289.017 160.661H288.517C288.517 160.84 288.613 161.005 288.768 161.095C288.923 161.184 289.114 161.183 289.268 161.093L289.017 160.661ZM363.7 117.253L363.951 117.685C364.105 117.596 364.2 117.431 364.2 117.253H363.7ZM363.7 117.194L363.449 116.762C363.295 116.851 363.2 117.016 363.2 117.194H363.7ZM399.007 112.124V74.9817H398.007V112.124H399.007ZM363.951 154.826C387.684 141.02 399.007 126.421 399.007 112.124H398.007C398.007 125.856 387.112 140.196 363.449 153.962L363.951 154.826ZM363.2 154.077V154.394H364.2V154.077H363.2ZM363.208 153.989L363.151 154.308L364.136 154.482L364.192 154.164L363.208 153.989ZM363.393 153.963L288.652 197.372L289.154 198.236L363.895 154.827L363.393 153.963ZM289.403 197.805L289.403 197.804L288.403 197.802L288.403 197.803L289.403 197.805ZM260.796 182.172L288.653 198.236L289.152 197.37L261.296 181.306L260.796 182.172ZM260.66 144.595L260.546 181.737L261.546 181.74L261.66 144.598L260.66 144.595ZM289.267 160.228L261.41 144.163L260.91 145.029L288.767 161.094L289.267 160.228ZM289.517 160.661V160.661H288.517V160.661H289.517ZM289.268 161.093L363.951 117.685L363.449 116.82L288.766 160.229L289.268 161.093ZM363.2 117.194V117.253H364.2V117.194H363.2ZM398.007 74.9817C398.007 88.7129 387.17 102.996 363.449 116.762L363.951 117.627C387.741 103.821 399.007 89.2784 399.007 74.9817H398.007Z" fill="#0A6190"/>
<path opacity="0.5" d="M141.595 58.427C135.672 57.6199 128.807 57.742 121.99 58.9278C115.172 60.1135 109.706 62.3059 105.578 65.1504C97.9429 70.1017 95.2907 76.7892 98.8344 83.0287C102.028 88.7505 111.007 92.0885 120.288 94.8803C131.878 98.1042 140.856 101.442 144.431 108.391C144.431 108.391 144.431 108.391 144.765 108.554C151.169 120.352 131.086 132.418 108.745 130.197C108.745 130.197 108.745 130.197 108.411 130.034C95.273 128.831 88.2075 124.344 81.08 118.439C75.6393 113.703 68.5736 109.216 57.0764 108.119C45.2448 106.86 33.2493 109.337 24.9305 113.608C20.1336 116.127 16.6737 119.297 15.2037 123.091C13.7337 126.885 13.8885 130.431 16.3211 133.699C20.168 139.393 29.1926 143.794 41.0241 145.054C51.8684 146.179 62.5425 143.404 71.5607 140.168C83.1601 136.109 93.181 133.363 106.334 134.92C119.472 136.123 126.537 140.61 133.665 146.515C139.105 151.251 146.171 155.738 157.668 156.834C169.5 158.094 181.495 155.616 189.814 151.346C190.452 150.963 190.77 150.771 191.408 150.388C192.046 150.005 192.364 149.813 193.002 149.43C200.637 144.479 203.289 137.791 199.745 131.552C196.551 125.83 187.573 122.492 178.292 119.701C166.701 116.477 157.723 113.139 154.149 106.19C150.574 99.2416 153.926 93.5893 160.177 86.9222C165.184 81.7303 168.855 75.8864 165.979 69.973C161.48 64.3082 152.455 59.9066 141.595 58.427Z" fill="#51A6B1"/>
<path d="M168.865 23.7842V54.9462C168.856 56.3328 168.604 57.7071 168.12 59.0066C166.722 62.8288 163.394 66.3336 158.57 69.069C156.224 70.4046 153.746 71.4951 151.176 72.3234L151.262 42.4597C153.832 41.6314 156.309 40.5408 158.656 39.2052C163.48 36.4637 164.144 32.8673 165.542 29.045C166.027 27.746 165.538 22.1881 165.542 20.8015L168.865 23.7842Z" fill="#0A6190" stroke="#0A6190" stroke-linejoin="round"/>
<path d="M95.3184 59.644L95.404 29.7803C95.4002 31.055 95.6064 32.3216 96.0146 33.5293C97.2907 37.3516 102.155 40.6601 106.887 43.4017C112.083 46.4058 118.527 48.2166 125.835 48.7478L125.75 78.6116C118.423 78.0804 110.345 76.4779 105.143 73.4616C100.411 70.72 97.2051 67.2153 95.929 63.393C95.5209 62.1854 95.3146 60.9187 95.3184 59.644Z" fill="#0A6190" stroke="#0A6190" stroke-linejoin="round"/>
<path d="M142.201 58.3509V66.5944L127.774 79.9712L127.86 50.1074L142.201 58.3509Z" fill="#0A6190" stroke="#0A6190" stroke-linejoin="round"/>
<path d="M140.139 101.175L142.2 127.967C142.2 127.967 129.835 111.48 109.226 109.419C88.617 107.358 74.7821 118.852 74.7821 118.852L74.782 87.6548L111.287 84.6882L140.139 101.175Z" fill="#0A6190" stroke="#0A6190" stroke-linejoin="round"/>
<path d="M76.2288 87.6535L76.1432 117.517C74.4821 119.161 72.612 120.58 70.5809 121.736C65.8183 124.515 59.7553 126.414 53.1488 127.232C46.5881 128.023 39.9398 127.67 33.5 126.188C29.6365 125.32 25.92 123.894 22.4668 121.956C20.9727 121.104 19.5639 120.11 18.2598 118.989C14.5352 115.765 12.5508 111.961 12.5752 108.065L12.6607 78.2017C12.6607 82.0972 14.6147 85.9012 18.3453 89.1251C19.6494 90.2466 21.058 91.2403 22.5521 92.0925C26.0052 94.0304 29.7221 95.4558 33.5855 96.3239C40.0253 97.8062 46.6734 98.1595 53.234 97.368C59.8345 96.5803 65.9039 94.6753 70.6664 91.8727C72.6975 90.7162 74.5676 89.2977 76.2288 87.6535Z" fill="#0A6190" stroke="#0A6190" stroke-linejoin="round"/>
<path d="M149.3 105.212L152.157 135.199C139.582 132.684 142.097 125.139 130.78 117.594L139.818 94.0569C140.777 98.2882 144.11 102.208 149.3 105.212Z" fill="#0A6190" stroke="#0A6190" stroke-linejoin="round"/>
<path d="M201.85 87.7693L201.764 117.633C201.764 117.877 201.764 118.122 201.764 118.366C201.434 123.342 197.862 128.08 191.769 131.622C185.675 135.163 177.505 137.251 168.908 137.459C160.311 137.666 151.94 135.981 145.456 132.745L145.541 102.881C152.026 106.117 160.403 107.803 168.994 107.595C177.585 107.387 185.754 105.299 191.854 101.758C197.954 98.2164 201.52 93.4782 201.85 88.502C201.843 88.2577 201.85 88.0135 201.85 87.7693Z" fill="#0A6190" stroke="#0A6190" stroke-linejoin="round"/>
<path d="M119.965 45.7176L119.973 45.72L119.981 45.7224C131.543 48.9383 140.327 52.224 143.832 59.0377L143.878 59.1265L144.002 59.1872L144.002 59.1872L144.002 59.1872L144.002 59.1873L144.002 59.1873L144.003 59.1873L144.003 59.1873L144.003 59.1874L144.003 59.1874L144.003 59.1874L144.003 59.1875L144.003 59.1875L144.003 59.1875L144.003 59.1876L144.003 59.1876L144.003 59.1876L144.003 59.1877L144.003 59.1877L144.003 59.1878L144.004 59.1878L144.004 59.1878L144.004 59.1879L144.004 59.1879L144.004 59.188L144.004 59.188L144.004 59.188L144.004 59.1881L144.004 59.1881L144.004 59.1881L144.004 59.1881L144.004 59.1882L144.004 59.1882L144.004 59.1883L144.005 59.1883L144.005 59.1883L144.005 59.1884L144.005 59.1884L144.005 59.1884L144.005 59.1885L144.005 59.1885L144.005 59.1885L144.005 59.1886L144.005 59.1886L144.005 59.1887L144.005 59.1887L144.006 59.1887L144.006 59.1888L144.006 59.1888L144.006 59.1889L144.006 59.1889L144.006 59.189L144.006 59.189L144.006 59.1891L144.006 59.1891L144.006 59.1892L144.006 59.1892L144.007 59.1893L144.007 59.1893L144.007 59.1894L144.007 59.1894L144.007 59.1895L144.007 59.1895L144.007 59.1896L144.007 59.1897L144.007 59.1897L144.008 59.1898L144.008 59.1898L144.008 59.1899L144.008 59.19L144.008 59.19L144.008 59.1901L144.008 59.1902L144.009 59.1902L144.009 59.1903L144.009 59.1904L144.009 59.1904L144.009 59.1905L144.009 59.1906L144.009 59.1907L144.01 59.1907L144.01 59.1908L144.01 59.1909L144.01 59.191L144.01 59.191L144.01 59.1911L144.011 59.1912L144.011 59.1913L144.011 59.1914L144.011 59.1914L144.011 59.1915L144.011 59.1916L144.012 59.1917L144.012 59.1918L144.012 59.1919L144.012 59.192L144.012 59.1921L144.012 59.1921L144.013 59.1922L144.013 59.1923L144.013 59.1924L144.013 59.1925L144.013 59.1926L144.014 59.1927L144.014 59.1928L144.014 59.1929L144.014 59.193L144.015 59.1931L144.015 59.1933L144.015 59.1934L144.015 59.1935L144.015 59.1936L144.016 59.1937L144.016 59.1938L144.016 59.1939L144.016 59.194L144.017 59.1941L144.017 59.1943L144.017 59.1944L144.017 59.1945L144.018 59.1946L144.018 59.1947L144.018 59.1949L144.018 59.195L144.019 59.1951L144.019 59.1952L144.019 59.1954L144.019 59.1955L144.02 59.1956L144.02 59.1958L144.02 59.1959L144.02 59.196L144.021 59.1962L144.021 59.1963L144.021 59.1965L144.022 59.1966L144.022 59.1967L144.022 59.1969L144.023 59.197L144.023 59.1972L144.023 59.1973L144.023 59.1975L144.024 59.1976L144.024 59.1978L144.024 59.198L144.025 59.1981L144.025 59.1983L144.025 59.1984L144.026 59.1986L144.026 59.1988L144.026 59.1989L144.027 59.1991L144.027 59.1993L144.027 59.1994L144.028 59.1996L144.028 59.1998L144.028 59.1999L144.029 59.2001L144.029 59.2003L144.03 59.2005L144.03 59.2006L144.03 59.2008L144.031 59.201L144.031 59.2012L144.031 59.2014L144.032 59.2016L144.032 59.2018L144.033 59.202L144.033 59.2022L144.033 59.2023L144.034 59.2025L144.034 59.2027L144.035 59.2029L144.035 59.2031L144.035 59.2033L144.036 59.2036L144.036 59.2038L144.037 59.204L144.037 59.2042L144.038 59.2044L144.038 59.2046L144.038 59.2048L144.039 59.205L144.039 59.2053L144.04 59.2055L144.04 59.2057L144.041 59.2059L144.041 59.2062L144.042 59.2064L144.042 59.2066L144.043 59.2068L144.043 59.2071L144.044 59.2073L144.044 59.2076L144.045 59.2078L144.045 59.208L144.046 59.2083L144.046 59.2085L144.047 59.2088L144.047 59.209L144.048 59.2093L144.048 59.2095L144.049 59.2098L144.049 59.21L144.05 59.2103L144.05 59.2106L144.051 59.2108L144.051 59.2111L144.052 59.2114L144.052 59.2116L144.053 59.2119L144.054 59.2122L144.054 59.2124L144.055 59.2127L144.055 59.213L144.056 59.2133L144.056 59.2136L144.057 59.2138L144.058 59.2141L144.058 59.2144L144.059 59.2147L144.059 59.215L144.06 59.2153L144.061 59.2156L144.061 59.2159L144.062 59.2162L144.062 59.2165L144.063 59.2168L144.064 59.2171L144.064 59.2174L144.065 59.2177L144.066 59.218L144.066 59.2184L144.067 59.2187L144.068 59.219L144.068 59.2193L144.069 59.2196L144.07 59.22L144.07 59.2203L144.071 59.2206L144.072 59.221L144.072 59.2213L144.073 59.2216L144.074 59.222L144.074 59.2223L144.075 59.2227L144.076 59.223L144.076 59.2234L144.077 59.2237L144.078 59.2241L144.079 59.2244L144.079 59.2248L144.08 59.2251L144.081 59.2255L144.082 59.2259L144.082 59.2262L144.083 59.2266L144.084 59.227L144.085 59.2274L144.085 59.2277L144.086 59.2281L144.087 59.2285L144.088 59.2289L144.089 59.2293L144.089 59.2297L144.09 59.23L144.091 59.2304L144.092 59.2308L144.093 59.2312L144.093 59.2316L144.094 59.232L144.095 59.2324L144.096 59.2328L144.097 59.2333L144.098 59.2337L144.098 59.2341L144.099 59.2345L144.1 59.2349L144.101 59.2353L144.102 59.2358L144.103 59.2362L144.104 59.2366L144.105 59.2371L144.105 59.2375L144.106 59.2379L144.107 59.2384L144.108 59.2388L144.109 59.2393L144.11 59.2397L144.111 59.2402L144.112 59.2406L144.113 59.2411L144.114 59.2415L144.115 59.242L144.116 59.2424L144.117 59.2429L144.118 59.2434L144.118 59.2439L144.119 59.2443L144.12 59.2448L144.121 59.2453L144.122 59.2458L144.123 59.2462L144.124 59.2467L144.125 59.2472L144.126 59.2477L144.127 59.2482L144.128 59.2487L144.129 59.2492L144.13 59.2497L144.132 59.2502L144.133 59.2507L144.134 59.2512L144.135 59.2517L144.136 59.2523L144.137 59.2528L144.138 59.2533L144.139 59.2538L144.14 59.2544L144.141 59.2549L144.142 59.2554L144.143 59.256L144.144 59.2565L144.146 59.257L144.147 59.2576L144.148 59.2581L144.149 59.2587L144.15 59.2592L144.151 59.2598L144.152 59.2603L144.153 59.2609L144.155 59.2615L144.156 59.262L144.157 59.2626L144.158 59.2632L144.159 59.2638L144.16 59.2643L144.162 59.2649L144.163 59.2655L144.164 59.2661L144.165 59.2667L144.167 59.2673L144.168 59.2679L144.169 59.2685L144.17 59.2691L144.171 59.2697L144.173 59.2703L144.174 59.2709L144.175 59.2715L144.176 59.2721L144.178 59.2727L144.179 59.2734L144.18 59.274L144.182 59.2746L144.183 59.2753L144.184 59.2759L144.185 59.2765L144.187 59.2772L144.188 59.2778L144.189 59.2785L144.191 59.2791L144.192 59.2798L144.193 59.2804L144.195 59.2811L144.196 59.2817L144.198 59.2824L144.199 59.2831L144.2 59.2838L144.202 59.2844L144.203 59.2851L144.204 59.2858L144.206 59.2865L144.207 59.2872L144.209 59.2879L144.21 59.2885L144.212 59.2892L144.213 59.2899L144.214 59.2907L144.215 59.2908C150.327 70.7885 130.811 82.515 109.052 80.419L109.051 80.4188L109.05 80.4183L109.049 80.4178L109.048 80.4173L109.047 80.4168L109.046 80.4163L109.045 80.4158L109.044 80.4153L109.043 80.4148L109.042 80.4143L109.041 80.4138L109.04 80.4133L109.039 80.4127L109.038 80.4122L109.037 80.4117L109.036 80.4112L109.035 80.4106L109.033 80.4101L109.032 80.4096L109.031 80.409L109.03 80.4085L109.029 80.4079L109.028 80.4074L109.027 80.4068L109.026 80.4063L109.025 80.4057L109.023 80.4052L109.022 80.4046L109.021 80.4041L109.02 80.4035L109.019 80.4029L109.018 80.4023L109.016 80.4018L109.015 80.4012L109.014 80.4006L109.013 80.4L109.012 80.3994L109.01 80.3988L109.009 80.3983L109.008 80.3977L109.007 80.3971L109.005 80.3965L109.004 80.3958L109.003 80.3952L109.002 80.3946L109 80.394L108.999 80.3934L108.998 80.3928L108.997 80.3922L108.995 80.3915L108.994 80.3909L108.993 80.3903L108.992 80.3896L108.99 80.389L108.989 80.3884L108.988 80.3877L108.986 80.3871L108.985 80.3864L108.984 80.3858L108.982 80.3851L108.981 80.3844L108.979 80.3838L108.978 80.3831L108.977 80.3824L108.975 80.3818L108.974 80.3811L108.973 80.3804L108.971 80.3797L108.97 80.3791L108.968 80.3784L108.967 80.3777L108.966 80.377L108.964 80.3763L108.963 80.3756L108.961 80.3749L108.96 80.3742L108.958 80.3735L108.957 80.3727L108.955 80.372L108.954 80.3713L108.952 80.3706L108.951 80.3699L108.949 80.3691L108.948 80.3684L108.946 80.3677L108.945 80.3669L108.943 80.3662L108.942 80.3654L108.94 80.3647L108.939 80.3639L108.937 80.3632L108.936 80.3624L108.934 80.3616L108.933 80.3609L108.931 80.3601L108.929 80.3593L108.928 80.3586L108.926 80.3578L108.925 80.357L108.923 80.3562L108.921 80.3554L108.92 80.3546L108.918 80.3538L108.916 80.353L108.915 80.3522L108.913 80.3514L108.912 80.3506L108.91 80.3498L108.908 80.349L108.906 80.3482L108.905 80.3473L108.903 80.3465L108.901 80.3457L108.9 80.3449L108.898 80.344L108.896 80.3432L108.895 80.3423L108.893 80.3415L108.891 80.3406L108.889 80.3398L108.888 80.3389L108.886 80.3381L108.884 80.3372L108.882 80.3363L108.88 80.3354L108.879 80.3346L108.877 80.3337L108.875 80.3328L108.873 80.3319L108.871 80.331L108.869 80.3301L108.868 80.3292L108.866 80.3283L108.864 80.3274L108.862 80.3265L108.86 80.3256L108.858 80.3247L108.856 80.3238L108.855 80.3228L108.853 80.3219L108.851 80.321L108.849 80.32L108.847 80.3191L108.845 80.3182L108.843 80.3172L108.841 80.3163L108.839 80.3153L108.715 80.2546L108.547 80.2392C95.6665 79.0602 88.7172 74.6735 81.6084 68.7842C76.1474 64.0316 68.9691 59.4474 57.2223 58.3258C45.1676 57.0437 32.9683 59.5693 24.5183 63.9074L24.5182 63.9074L24.5128 63.9102C19.6249 66.4764 16.0949 69.7107 14.5963 73.5785C13.1082 77.4195 13.2555 81.0339 15.74 84.3754C19.657 90.1675 28.8389 94.6438 40.8722 95.9248L40.875 95.9251C51.9717 97.0764 62.8327 94.2328 71.8785 90.9876C83.4516 86.9382 93.2767 84.2634 106.17 85.7898L106.184 85.7914L106.198 85.7927C119.078 86.9717 126.028 91.3585 133.136 97.2478C138.597 102 145.776 106.585 157.522 107.706C169.577 108.988 181.776 106.463 190.226 102.125L190.246 102.115L190.264 102.104L190.267 102.102L190.271 102.1L190.275 102.097L190.278 102.095L190.282 102.093L190.286 102.091L190.29 102.088L190.293 102.086L190.297 102.084L190.301 102.082L190.304 102.08L190.308 102.077L190.312 102.075L190.315 102.073L190.319 102.071L190.322 102.069L190.326 102.066L190.33 102.064L190.333 102.062L190.337 102.06L190.34 102.058L190.344 102.056L190.348 102.053L190.351 102.051L190.355 102.049L190.358 102.047L190.362 102.045L190.365 102.043L190.369 102.041L190.372 102.039L190.376 102.036L190.38 102.034L190.383 102.032L190.387 102.03L190.39 102.028L190.394 102.026L190.397 102.024L190.4 102.022L190.404 102.02L190.407 102.018L190.411 102.015L190.414 102.013L190.418 102.011L190.421 102.009L190.425 102.007L190.428 102.005L190.432 102.003L190.435 102.001L190.438 101.999L190.442 101.997L190.445 101.995L190.449 101.993L190.452 101.991L190.455 101.989L190.459 101.987L190.462 101.985L190.466 101.983L190.469 101.981L190.472 101.979L190.476 101.977L190.479 101.975L190.482 101.973L190.486 101.971L190.489 101.969L190.492 101.967L190.496 101.965L190.499 101.963L190.502 101.961L190.505 101.959L190.509 101.957L190.512 101.955L190.515 101.953L190.519 101.951L190.522 101.949L190.525 101.947L190.528 101.945L190.532 101.943L190.535 101.941L190.538 101.939L190.541 101.937L190.545 101.935L190.548 101.933L190.551 101.931L190.554 101.929L190.558 101.927L190.561 101.925L190.564 101.923L190.567 101.922L190.57 101.92L190.574 101.918L190.577 101.916L190.58 101.914L190.583 101.912L190.586 101.91L190.59 101.908L190.593 101.906L190.596 101.904L190.599 101.902L190.602 101.901L190.605 101.899L190.609 101.897L190.612 101.895L190.615 101.893L190.618 101.891L190.621 101.889L190.624 101.887L190.627 101.885L190.63 101.884L190.634 101.882L190.637 101.88L190.64 101.878L190.643 101.876L190.646 101.874L190.649 101.872L190.652 101.871L190.655 101.869L190.658 101.867L190.661 101.865L190.664 101.863L190.667 101.861L190.671 101.859L190.674 101.858L190.677 101.856L190.68 101.854L190.683 101.852L190.686 101.85L190.689 101.848L190.692 101.847L190.695 101.845L190.698 101.843L190.701 101.841L190.704 101.839L190.707 101.838L190.71 101.836L190.713 101.834L190.716 101.832L190.719 101.83L190.722 101.828L190.725 101.827L190.728 101.825L190.731 101.823L190.734 101.821L190.737 101.82L190.74 101.818L190.743 101.816L190.746 101.814L190.749 101.812L190.752 101.811L190.755 101.809L190.758 101.807L190.761 101.805L190.764 101.803L190.767 101.802L190.77 101.8L190.773 101.798L190.776 101.796L190.778 101.795L190.781 101.793L190.784 101.791L190.787 101.789L190.79 101.788L190.793 101.786L190.796 101.784L190.799 101.782L190.802 101.781L190.805 101.779L190.808 101.777L190.811 101.775L190.814 101.773L190.817 101.772L190.819 101.77L190.822 101.768L190.825 101.767L190.828 101.765L190.831 101.763L190.834 101.761L190.837 101.76L190.84 101.758L190.843 101.756L190.845 101.754L190.848 101.753L190.851 101.751L190.854 101.749L190.857 101.747L190.86 101.746L190.863 101.744L190.866 101.742L190.868 101.741L190.871 101.739L190.874 101.737L190.877 101.735L190.88 101.734L190.883 101.732L190.886 101.73L190.888 101.728L190.891 101.727L190.894 101.725L190.897 101.723L190.9 101.722L190.903 101.72L190.906 101.718L190.908 101.717L190.911 101.715L190.914 101.713L190.917 101.711L190.92 101.71L190.923 101.708L190.925 101.706L190.928 101.705L190.931 101.703L190.934 101.701L190.937 101.699L190.94 101.698L190.942 101.696L190.945 101.694L190.948 101.693L190.951 101.691L190.954 101.689L190.957 101.688L190.959 101.686L190.962 101.684L190.965 101.683L190.968 101.681L190.971 101.679L190.973 101.677L190.976 101.676L190.979 101.674L190.982 101.672L190.985 101.671L190.988 101.669L190.99 101.667L190.993 101.666L190.996 101.664L190.999 101.662L191.002 101.661L191.004 101.659L191.007 101.657L191.01 101.655L191.013 101.654L191.016 101.652L191.018 101.65L191.021 101.649L191.024 101.647L191.027 101.645L191.03 101.644L191.032 101.642L191.035 101.64L191.038 101.639L191.041 101.637L191.044 101.635L191.046 101.634L191.049 101.632L191.052 101.63L191.055 101.629L191.058 101.627L191.06 101.625L191.063 101.623L191.066 101.622L191.069 101.62L191.072 101.618L191.074 101.617L191.077 101.615L191.08 101.613L191.083 101.612L191.086 101.61L191.088 101.608L191.091 101.607L191.094 101.605L191.097 101.603L191.1 101.602L191.103 101.6L191.105 101.598L191.108 101.597L191.111 101.595L191.114 101.593L191.117 101.591L191.119 101.59L191.122 101.588L191.125 101.586L191.128 101.585L191.131 101.583L191.133 101.581L191.136 101.58L191.139 101.578L191.142 101.576L191.145 101.575L191.147 101.573L191.15 101.571L191.153 101.57L191.156 101.568L191.159 101.566L191.162 101.564L191.164 101.563L191.167 101.561L191.17 101.559L191.173 101.558L191.176 101.556L191.178 101.554L191.181 101.553L191.184 101.551L191.187 101.549L191.19 101.547L191.193 101.546L191.195 101.544L191.198 101.542L191.201 101.541L191.204 101.539L191.207 101.537L191.21 101.536L191.212 101.534L191.215 101.532L191.218 101.53L191.221 101.529L191.224 101.527L191.227 101.525L191.23 101.524L191.232 101.522L191.235 101.52L191.238 101.518L191.241 101.517L191.244 101.515L191.247 101.513L191.25 101.512L191.252 101.51L191.255 101.508L191.258 101.506L191.261 101.505L191.264 101.503L191.267 101.501L191.27 101.499L191.273 101.498L191.275 101.496L191.278 101.494L191.281 101.493L191.284 101.491L191.287 101.489L191.29 101.487L191.293 101.486L191.296 101.484L191.299 101.482L191.302 101.48L191.304 101.479L191.307 101.477L191.31 101.475L191.313 101.473L191.316 101.472L191.319 101.47L191.322 101.468L191.325 101.466L191.328 101.465L191.331 101.463L191.334 101.461L191.337 101.459L191.339 101.458L191.342 101.456L191.345 101.454L191.348 101.452L191.351 101.45L191.354 101.449L191.357 101.447L191.36 101.445L191.363 101.443L191.366 101.442L191.369 101.44L191.372 101.438L191.375 101.436L191.378 101.434L191.381 101.433L191.384 101.431L191.387 101.429L191.39 101.427L191.393 101.425L191.396 101.424L191.399 101.422L191.402 101.42L191.405 101.418L191.408 101.416L191.411 101.415L191.414 101.413L191.417 101.411L191.42 101.409L191.423 101.407L191.426 101.406L191.429 101.404L191.432 101.402L191.435 101.4L191.438 101.398L191.441 101.396L191.444 101.395L191.447 101.393L191.45 101.391L191.453 101.389L191.457 101.387L191.46 101.385L191.463 101.384L191.466 101.382L191.469 101.38L191.472 101.378L191.475 101.376L191.478 101.374L191.481 101.372L191.484 101.371L191.487 101.369L191.491 101.367L191.494 101.365L191.497 101.363L191.5 101.361L191.503 101.359L191.506 101.357L191.509 101.355L191.512 101.354L191.516 101.352L191.519 101.35L191.522 101.348L191.525 101.346L191.528 101.344L191.531 101.342L191.535 101.34L191.538 101.338L191.541 101.336L191.544 101.335L191.547 101.333L191.55 101.331L191.554 101.329L191.557 101.327L191.56 101.325L191.563 101.323L191.567 101.321L191.57 101.319L191.573 101.317L191.576 101.315L191.579 101.313L191.583 101.311L191.586 101.309L191.589 101.307L191.592 101.306L191.596 101.304L191.599 101.302L191.602 101.3L191.606 101.298L191.609 101.296L191.612 101.294L191.615 101.292L191.619 101.29L191.622 101.288L191.625 101.286L191.629 101.284L191.632 101.282L191.635 101.28L191.639 101.278L191.642 101.276L191.645 101.274L191.649 101.272L191.652 101.27L191.655 101.268L191.659 101.266L191.662 101.264L191.666 101.262L191.669 101.26L191.672 101.258L191.676 101.255L191.679 101.253L191.683 101.251L191.686 101.249L191.689 101.247L191.693 101.245L191.696 101.243L191.7 101.241L191.703 101.239L191.707 101.237L191.71 101.235L191.713 101.233L191.717 101.231L191.72 101.229L191.724 101.227L191.727 101.224L191.731 101.222L191.734 101.22L191.738 101.218L191.741 101.216L191.745 101.214L191.748 101.212L191.752 101.21L191.756 101.208L191.759 101.205L191.763 101.203L191.766 101.201L191.77 101.199L191.773 101.197L191.777 101.195L191.78 101.193L191.784 101.19L191.788 101.188L191.791 101.186L191.795 101.184L191.799 101.182L191.802 101.18L191.806 101.177L191.809 101.175L191.813 101.173L191.817 101.171L191.82 101.169L191.824 101.166L191.828 101.164L191.831 101.162L191.835 101.16L191.839 101.158L191.842 101.155L191.846 101.153L191.85 101.151L191.854 101.149L191.857 101.146L191.861 101.144L191.865 101.142L191.869 101.14L191.872 101.137L191.876 101.135L191.88 101.133L191.883 101.131L191.887 101.129L191.891 101.126L191.894 101.124L191.898 101.122L191.902 101.12L191.905 101.118L191.909 101.115L191.913 101.113L191.916 101.111L191.92 101.109L191.923 101.107L191.927 101.104L191.931 101.102L191.934 101.1L191.938 101.098L191.941 101.096L191.945 101.094L191.949 101.092L191.952 101.089L191.956 101.087L191.959 101.085L191.963 101.083L191.966 101.081L191.97 101.079L191.973 101.077L191.977 101.075L191.98 101.072L191.984 101.07L191.987 101.068L191.991 101.066L191.994 101.064L191.998 101.062L192.001 101.06L192.005 101.058L192.008 101.056L192.012 101.054L192.015 101.052L192.019 101.05L192.022 101.047L192.025 101.045L192.029 101.043L192.032 101.041L192.036 101.039L192.039 101.037L192.042 101.035L192.046 101.033L192.049 101.031L192.053 101.029L192.056 101.027L192.059 101.025L192.063 101.023L192.066 101.021L192.069 101.019L192.073 101.017L192.076 101.015L192.079 101.013L192.083 101.011L192.086 101.009L192.089 101.007L192.093 101.005L192.096 101.003L192.099 101.001L192.103 100.999L192.106 100.997L192.109 100.995L192.112 100.993L192.116 100.991L192.119 100.989L192.122 100.987L192.126 100.985L192.129 100.983L192.132 100.981L192.135 100.979L192.139 100.977L192.142 100.975L192.145 100.974L192.148 100.972L192.151 100.97L192.155 100.968L192.158 100.966L192.161 100.964L192.164 100.962L192.167 100.96L192.171 100.958L192.174 100.956L192.177 100.954L192.18 100.952L192.183 100.95L192.187 100.949L192.19 100.947L192.193 100.945L192.196 100.943L192.199 100.941L192.202 100.939L192.205 100.937L192.209 100.935L192.212 100.933L192.215 100.932L192.218 100.93L192.221 100.928L192.224 100.926L192.227 100.924L192.23 100.922L192.234 100.92L192.237 100.918L192.24 100.917L192.243 100.915L192.246 100.913L192.249 100.911L192.252 100.909L192.255 100.907L192.258 100.905L192.261 100.904L192.264 100.902L192.267 100.9L192.27 100.898L192.274 100.896L192.277 100.894L192.28 100.893L192.283 100.891L192.286 100.889L192.289 100.887L192.292 100.885L192.295 100.883L192.298 100.882L192.301 100.88L192.304 100.878L192.307 100.876L192.31 100.874L192.313 100.873L192.316 100.871L192.319 100.869L192.322 100.867L192.325 100.865L192.328 100.864L192.331 100.862L192.334 100.86L192.337 100.858L192.34 100.856L192.343 100.855L192.346 100.853L192.349 100.851L192.352 100.849L192.355 100.848L192.358 100.846L192.361 100.844L192.363 100.842L192.366 100.84L192.369 100.839L192.372 100.837L192.375 100.835L192.378 100.833L192.381 100.832L192.384 100.83L192.387 100.828L192.39 100.826L192.393 100.825L192.396 100.823L192.399 100.821L192.402 100.819L192.405 100.818L192.407 100.816L192.41 100.814L192.413 100.812L192.416 100.811L192.419 100.809L192.422 100.807L192.425 100.805L192.428 100.804L192.431 100.802L192.434 100.8L192.436 100.798L192.439 100.797L192.442 100.795L192.445 100.793L192.448 100.791L192.451 100.79L192.454 100.788L192.457 100.786L192.459 100.785L192.462 100.783L192.465 100.781L192.468 100.779L192.471 100.778L192.474 100.776L192.477 100.774L192.479 100.773L192.482 100.771L192.485 100.769L192.488 100.767L192.491 100.766L192.494 100.764L192.497 100.762L192.499 100.761L192.502 100.759L192.505 100.757L192.508 100.755L192.511 100.754L192.514 100.752L192.516 100.75L192.519 100.749L192.522 100.747L192.525 100.745L192.528 100.744L192.531 100.742L192.533 100.74L192.536 100.738L192.539 100.737L192.542 100.735L192.545 100.733L192.548 100.732L192.55 100.73L192.553 100.728L192.556 100.727L192.559 100.725L192.562 100.723L192.564 100.721L192.567 100.72L192.57 100.718L192.573 100.716L192.576 100.715L192.579 100.713L192.581 100.711L192.584 100.71L192.587 100.708L192.59 100.706L192.593 100.705L192.595 100.703L192.598 100.701L192.601 100.7L192.604 100.698L192.607 100.696L192.609 100.694L192.612 100.693L192.615 100.691L192.618 100.689L192.621 100.688L192.623 100.686L192.626 100.684L192.629 100.683L192.632 100.681L192.635 100.679L192.637 100.678L192.64 100.676L192.643 100.674L192.646 100.673L192.649 100.671L192.651 100.669L192.654 100.668L192.657 100.666L192.66 100.664L192.663 100.662L192.665 100.661L192.668 100.659L192.671 100.657L192.674 100.656L192.677 100.654L192.68 100.652L192.682 100.651L192.685 100.649L192.688 100.647L192.691 100.646L192.694 100.644L192.696 100.642L192.699 100.641L192.702 100.639L192.705 100.637L192.708 100.635L192.71 100.634L192.713 100.632L192.716 100.63L192.719 100.629L192.722 100.627L192.724 100.625L192.727 100.624L192.73 100.622L192.733 100.62L192.736 100.619L192.738 100.617L192.741 100.615L192.744 100.614L192.747 100.612L192.75 100.61L192.753 100.608L192.755 100.607L192.758 100.605L192.761 100.603L192.764 100.602L192.767 100.6L192.769 100.598L192.772 100.597L192.775 100.595L192.778 100.593L192.781 100.591L192.784 100.59L192.786 100.588L192.789 100.586L192.792 100.585L192.795 100.583L192.798 100.581L192.801 100.58L192.803 100.578L192.806 100.576L192.809 100.574L192.812 100.573L192.815 100.571L192.818 100.569L192.821 100.568L192.823 100.566L192.826 100.564L192.829 100.562L192.832 100.561L192.835 100.559L192.838 100.557L192.841 100.556L192.843 100.554L192.846 100.552L192.849 100.55L192.852 100.549L192.855 100.547L192.858 100.545L192.861 100.543L192.864 100.542L192.866 100.54L192.869 100.538L192.872 100.537L192.875 100.535L192.878 100.533L192.881 100.531L192.884 100.53L192.887 100.528L192.89 100.526L192.892 100.524L192.895 100.523L192.898 100.521L192.901 100.519L192.904 100.517L192.907 100.516L192.91 100.514L192.913 100.512L192.916 100.51L192.919 100.509L192.922 100.507L192.925 100.505L192.927 100.503L192.93 100.502L192.933 100.5L192.936 100.498L192.939 100.496L192.942 100.495L192.945 100.493L192.948 100.491L192.951 100.489L192.954 100.487L192.957 100.486L192.96 100.484L192.963 100.482L192.966 100.48L192.969 100.479L192.972 100.477L192.975 100.475L192.978 100.473L192.981 100.471L192.984 100.47L192.987 100.468L192.99 100.466L192.993 100.464L192.996 100.462L192.999 100.461L193.002 100.459L193.005 100.457L193.008 100.455L193.011 100.453L193.014 100.451L193.017 100.45L193.02 100.448L193.023 100.446L193.026 100.444L193.029 100.442L193.032 100.441L193.035 100.439L193.038 100.437L193.041 100.435L193.044 100.433L193.047 100.431L193.05 100.43L193.053 100.428L193.056 100.426L193.06 100.424L193.063 100.422L193.066 100.42L193.069 100.418L193.072 100.417L193.075 100.415L193.078 100.413L193.081 100.411L193.084 100.409L193.087 100.407L193.091 100.405L193.094 100.403L193.097 100.402L193.1 100.4L193.103 100.398L193.106 100.396L193.109 100.394L193.113 100.392L193.116 100.39L193.119 100.388L193.122 100.386L193.125 100.385L193.128 100.383L193.132 100.381L193.135 100.379L193.138 100.377L193.141 100.375L193.144 100.373L193.147 100.371L193.151 100.369L193.154 100.367L193.157 100.365L193.16 100.363L193.164 100.361L193.167 100.36L193.17 100.358L193.173 100.356L193.177 100.354L193.18 100.352L193.183 100.35L193.186 100.348L193.19 100.346L193.193 100.344L193.196 100.342L193.199 100.34L193.203 100.338L193.206 100.336L193.209 100.334L193.213 100.332L193.216 100.33L193.219 100.328L193.222 100.326L193.226 100.324L193.229 100.322L193.232 100.32L193.236 100.318L193.239 100.316L193.243 100.314L193.246 100.312L193.249 100.31L193.253 100.308L193.256 100.306L193.259 100.304L193.263 100.302L193.266 100.3L193.27 100.298L193.273 100.296L193.276 100.294L193.28 100.292L193.283 100.29L193.287 100.288L193.29 100.285L193.293 100.283L193.297 100.281L193.3 100.279L193.304 100.277L193.307 100.275L193.311 100.273L193.314 100.271L193.318 100.269L193.321 100.267L193.325 100.265L193.328 100.263L193.332 100.26L193.335 100.258L193.339 100.256L193.342 100.254L193.346 100.252L193.349 100.25L193.353 100.248L193.356 100.246L193.36 100.243L193.364 100.241L193.367 100.239L193.371 100.237L193.374 100.235L193.378 100.233L193.381 100.231L193.385 100.228L193.389 100.226L193.392 100.224L193.396 100.222L193.4 100.22L193.403 100.217L193.407 100.215L193.411 100.213L193.414 100.211L193.418 100.209L193.422 100.206L193.425 100.204L193.429 100.202L193.433 100.2L193.436 100.198L193.44 100.195L193.444 100.193L193.447 100.191L193.451 100.189L193.46 100.184L193.468 100.178C201.248 95.1324 203.944 88.3217 200.34 81.9755C197.072 76.1232 187.9 72.7344 178.615 69.9414L178.607 69.9389L178.598 69.9366C167.037 66.7206 158.253 63.4348 154.747 56.6212C151.235 49.7935 154.503 44.2392 160.725 37.6032C165.756 32.3862 169.515 26.4444 166.58 20.4085L166.569 20.3852L166.552 20.3633C161.986 14.6162 152.827 10.1432 141.778 8.63771C135.738 7.8148 128.755 7.94099 121.831 9.14519C114.885 10.3534 109.311 12.5886 105.105 15.4849C97.3297 20.5302 94.6369 27.3389 98.2397 33.6833C101.507 39.5356 110.679 42.9245 119.965 45.7176Z" fill="#5CC3C9" stroke="#0A6190"/>
</svg>
